<svg width="721" height="168" viewBox="0 0 721 168" fill="none" xmlns="http://www.w3.org/2000/svg">
<rect width="721" height="168" rx="20" fill="white"/>
<path d="M182.725 49.697H194.275V38.532H182.725V49.697ZM170.9 145.232H178.875C188.72 145.232 194.275 139.732 194.275 130.052V59.432H182.725V125.377C182.725 131.482 179.975 134.342 173.925 134.342H170.9V145.232ZM251.298 69.112C247.613 61.302 239.363 57.782 228.748 57.782C214.998 57.782 206.748 64.272 203.888 74.447L214.613 77.747C216.648 71.147 222.368 68.397 228.638 68.397C237.933 68.397 241.673 72.247 242.058 80.442C232.433 81.762 222.643 83.027 215.768 85.062C206.583 87.977 201.743 93.697 201.743 102.662C201.743 112.342 208.673 120.482 221.818 120.482C231.443 120.482 238.318 117.182 243.213 110.197V118.832H253.388V82.257C253.388 77.307 253.168 73.017 251.298 69.112ZM223.853 111.077C216.483 111.077 213.128 107.172 213.128 102.552C213.128 97.877 216.593 95.347 221.323 93.752C226.328 92.267 232.983 91.332 241.948 90.012C241.893 92.762 241.673 96.557 240.738 99.307C239.418 105.082 233.643 111.077 223.853 111.077ZM257.22 118.832H307.545V108.547H275.535L309.195 61.302V59.432H260.3V69.717H290.935L257.22 117.017V118.832ZM310.815 118.832H361.14V108.547H329.13L362.79 61.302V59.432H313.895V69.717H344.53L310.815 117.017V118.832Z" fill="black"/>
<path d="M142.179 60.6597V37C123.931 44.3847 103.985 48.4512 83.0897 48.4512C71.1466 48.4512 59.5138 47.1228 48.331 44.6057V67.2396V96.9828C47.2955 96.2705 46.1568 95.6778 44.9405 95.2235C42.1732 94.19 39.128 93.9196 36.1902 94.4465C33.2524 94.9734 30.5539 96.2739 28.4358 98.1836C26.3178 100.093 24.8754 102.526 24.291 105.175C23.7066 107.824 24.0066 110.57 25.1528 113.065C26.2991 115.56 28.2403 117.693 30.7308 119.193C33.2214 120.694 36.1495 121.494 39.1448 121.494C39.6054 121.494 39.8365 121.494 40.0314 121.491C50.5583 121.281 59.042 112.798 59.2513 102.271C59.2534 102.163 59.2544 102.044 59.2548 101.881L59.2552 101.547V101.384V97.9082V69.0313C67.0533 70.0644 75.0092 70.5976 83.0897 70.5976C83.6696 70.5976 84.2489 70.5949 84.8276 70.5894V126.528C83.792 125.815 82.6533 125.223 81.437 124.768C78.6697 123.735 75.6246 123.464 72.6867 123.991C69.7489 124.518 67.0504 125.819 64.9323 127.728C62.8143 129.638 61.3719 132.071 60.7875 134.72C60.2032 137.369 60.5031 140.115 61.6494 142.61C62.7956 145.105 64.7368 147.237 67.2273 148.738C69.7179 150.238 72.646 151.039 75.6414 151.039C76.1024 151.039 76.3329 151.039 76.5279 151.035C87.0548 150.826 95.5385 142.342 95.7478 131.815C95.7517 131.62 95.7517 131.39 95.7517 130.929V127.453V70.1586C107.962 69.3088 119.837 67.2395 131.255 64.0717V96.7337C130.219 96.0214 129.081 95.4286 127.864 94.9744C125.097 93.9409 122.052 93.6704 119.114 94.1973C116.176 94.7242 113.478 96.0247 111.36 97.9345C109.242 99.8442 107.799 102.277 107.215 104.926C106.631 107.575 106.931 110.321 108.077 112.816C109.223 115.311 111.164 117.444 113.655 118.944C116.145 120.444 119.073 121.245 122.069 121.245C122.53 121.245 122.76 121.245 122.955 121.241C133.482 121.032 141.966 112.548 142.175 102.021C142.179 101.826 142.179 101.596 142.179 101.135V97.6591V60.6597Z" fill="#146AFF"/>
<path d="M663.255 118.832V59.432H673.485V73.842L672.055 71.972C672.788 70.0653 673.741 68.3237 674.915 66.747C676.088 65.1337 677.445 63.8137 678.985 62.787C680.488 61.687 682.156 60.8437 683.99 60.257C685.86 59.6337 687.766 59.267 689.71 59.157C691.653 59.0103 693.523 59.102 695.32 59.432V70.212C693.376 69.6987 691.213 69.552 688.83 69.772C686.483 69.992 684.32 70.7437 682.34 72.027C680.47 73.237 678.985 74.7037 677.885 76.427C676.821 78.1503 676.051 80.0753 675.575 82.202C675.098 84.292 674.86 86.5103 674.86 88.857V118.832H663.255Z" fill="#146AFF"/>
<path d="M627.518 120.482C621.578 120.482 616.427 119.144 612.063 116.467C607.7 113.79 604.327 110.105 601.943 105.412C599.597 100.682 598.423 95.237 598.423 89.077C598.423 82.8803 599.633 77.4353 602.053 72.742C604.473 68.012 607.865 64.3453 612.228 61.742C616.592 59.102 621.688 57.782 627.518 57.782C633.458 57.782 638.61 59.1203 642.973 61.797C647.337 64.4737 650.71 68.1587 653.093 72.852C655.477 77.5453 656.668 82.9537 656.668 89.077C656.668 95.2737 655.458 100.737 653.038 105.467C650.655 110.16 647.282 113.845 642.918 116.522C638.555 119.162 633.422 120.482 627.518 120.482ZM627.518 109.647C633.202 109.647 637.437 107.74 640.223 103.927C643.047 100.077 644.458 95.127 644.458 89.077C644.458 82.8803 643.028 77.9303 640.168 74.227C637.345 70.487 633.128 68.617 627.518 68.617C623.668 68.617 620.497 69.497 618.003 71.257C615.51 72.9803 613.658 75.382 612.448 78.462C611.238 81.5053 610.633 85.0437 610.633 89.077C610.633 95.3103 612.063 100.297 614.923 104.037C617.783 107.777 621.982 109.647 627.518 109.647Z" fill="#146AFF"/>
<path d="M597.385 118.832C593.645 119.565 589.979 119.877 586.385 119.767C582.792 119.657 579.584 118.96 576.76 117.677C573.937 116.394 571.81 114.377 570.38 111.627C569.097 109.17 568.4 106.677 568.29 104.147C568.217 101.58 568.18 98.6837 568.18 95.457V42.932H579.73V94.907C579.73 97.2903 579.749 99.362 579.785 101.122C579.859 102.882 580.244 104.367 580.94 105.577C582.26 107.85 584.35 109.152 587.21 109.482C590.107 109.775 593.499 109.647 597.385 109.097V118.832ZM556.795 68.672V59.432H597.385V68.672H556.795Z" fill="#146AFF"/>
<path d="M531.786 120.482C525.699 120.482 520.529 119.125 516.276 116.412C512.022 113.699 508.759 109.977 506.486 105.247C504.249 100.517 503.112 95.1453 503.076 89.132C503.112 83.0087 504.286 77.6003 506.596 72.907C508.906 68.177 512.206 64.4737 516.496 61.797C520.786 59.1203 525.937 57.782 531.951 57.782C538.441 57.782 543.977 59.3953 548.561 62.622C553.181 65.8487 556.224 70.267 557.691 75.877L546.251 79.177C545.114 75.8403 543.244 73.2553 540.641 71.422C538.074 69.552 535.122 68.617 531.786 68.617C528.009 68.617 524.911 69.5153 522.491 71.312C520.071 73.072 518.274 75.492 517.101 78.572C515.927 81.652 515.322 85.172 515.286 89.132C515.322 95.2553 516.716 100.205 519.466 103.982C522.252 107.759 526.359 109.647 531.786 109.647C535.489 109.647 538.477 108.804 540.751 107.117C543.061 105.394 544.821 102.937 546.031 99.747L557.691 102.497C555.747 108.29 552.539 112.745 548.066 115.862C543.592 118.942 538.166 120.482 531.786 120.482Z" fill="#146AFF"/>
<path d="M472.586 120.482C466.683 120.482 461.494 119.199 457.021 116.632C452.584 114.029 449.119 110.417 446.626 105.797C444.169 101.14 442.941 95.7503 442.941 89.627C442.941 83.137 444.151 77.5087 446.571 72.742C449.028 67.9753 452.438 64.2903 456.801 61.687C461.164 59.0837 466.243 57.782 472.036 57.782C478.086 57.782 483.238 59.1937 487.491 62.017C491.744 64.8037 494.916 68.782 497.006 73.952C499.133 79.122 499.976 85.2637 499.536 92.377H488.041V88.197C487.968 81.3037 486.648 76.207 484.081 72.907C481.551 69.607 477.683 67.957 472.476 67.957C466.719 67.957 462.393 69.772 459.496 73.402C456.599 77.032 455.151 82.2753 455.151 89.132C455.151 95.6587 456.599 100.719 459.496 104.312C462.393 107.869 466.573 109.647 472.036 109.647C475.629 109.647 478.728 108.84 481.331 107.227C483.971 105.577 486.024 103.23 487.491 100.187L498.766 103.762C496.456 109.079 492.954 113.204 488.261 116.137C483.568 119.034 478.343 120.482 472.586 120.482ZM451.411 92.377V83.412H493.816V92.377H451.411Z" fill="#146AFF"/>
<path d="M415.778 56.1015L412.074 64.3037L400.351 59.0097L416.59 104.422L432.375 59.4316H443.98L422.42 118.832H410.76L390.504 62.8681L385.286 74.4248L377.085 70.7216L389.121 44.0634L415.778 56.1015Z" fill="#146AFF"/>
</svg>
